<?xml version="1.0" encoding="UTF-8"?>
<svg version="1.1" xmlns="http://www.w3.org/2000/svg" width="768" height="768">
<path d="M0 0 C15.52875449 12.61327687 21.98899768 29.93264019 24.16761017 49.21526718 C24.80479642 56.39999667 25.14040201 63.6011241 25.484375 70.8046875 C25.60721592 73.15450596 25.73125874 75.50426185 25.85641479 77.85395813 C26.1156667 82.77779249 26.36527458 87.70198026 26.60693359 92.62670898 C26.90757661 98.7523105 27.22444051 104.87691331 27.54790783 111.00134754 C28.7838371 134.43781608 29.87432567 157.87287728 30.64443398 181.32941437 C31.86096508 218.34290585 33.86373362 255.3140831 35.83443213 292.29364294 C36.24099391 299.9309943 36.64094841 307.56868073 37.03928035 315.20646518 C37.48066372 323.66633018 37.92693132 332.12593154 38.37516975 340.58543587 C38.56124966 344.09894035 38.74575134 347.61252146 38.92873955 351.12618828 C40.0001178 371.66368509 41.26648915 392.17356512 42.86332607 412.67759609 C45.64222831 448.70289332 45.64222831 448.70289332 40.8515625 461.41796875 C40.42617188 462.57554687 40.00078125 463.733125 39.5625 464.92578125 C36.60661554 472.37081644 33.24570091 478.5010994 27.8515625 484.41796875 C27.19542969 485.165625 26.53929687 485.91328125 25.86328125 486.68359375 C13.691038 499.76819893 -2.26774485 506.73080201 -19.96200848 507.4521265 C-21.40931984 507.49743311 -22.85663553 507.54260185 -24.30395508 507.58764648 C-25.87389408 507.6535392 -27.44373532 507.72179621 -29.01347828 507.79220486 C-32.34655667 507.9396393 -35.67983064 508.07653431 -39.01364517 508.20621872 C-46.73061335 508.51428547 -54.44093338 508.9483131 -62.15249944 509.36746252 C-66.74470966 509.61522167 -71.33742511 509.8532254 -75.93011475 510.09190369 C-77.85436872 510.19214648 -79.77862154 510.29241167 -81.70287323 510.39269829 C-83.1641192 510.46881879 -83.1641192 510.46881879 -84.65488529 510.54647708 C-89.84850195 510.81719119 -95.04207789 511.08868438 -100.23565674 511.36012268 C-109.13771235 511.82532158 -118.03978309 512.29022972 -126.94186401 512.75494385 C-150.66187791 513.99329614 -174.38175067 515.23434622 -198.1015625 516.4765625 C-199.89493707 516.57047775 -199.89493707 516.57047775 -201.72454143 516.66629028 C-245.63787586 518.96613083 -289.54981354 521.29140272 -333.46078199 523.63594663 C-341.91340059 524.08722407 -350.3660574 524.53778379 -358.81871998 524.98823667 C-363.03847497 525.21311436 -367.25822813 525.43802654 -371.47798157 525.66293335 C-373.16794141 525.75300478 -374.85790125 525.84307614 -376.5478611 525.93314743 C-377.38422985 525.97772441 -378.22059861 526.0223014 -379.08231187 526.0682292 C-380.76658824 526.15799789 -382.45086466 526.24776567 -384.13514113 526.33753252 C-390.0638923 526.65352048 -395.99264086 526.96955714 -401.92138672 527.28564453 C-402.7714684 527.33096479 -403.62155009 527.37628504 -404.49739182 527.42297864 C-414.5823865 527.96067655 -424.66734725 528.49900483 -434.7522583 529.03826904 C-436.22282984 529.1169026 -436.22282984 529.1169026 -437.7231099 529.19712472 C-438.70972086 529.24988053 -439.69633182 529.30263634 -440.71284008 529.35699081 C-460.73601019 530.42765542 -480.75933454 531.49535012 -500.78294659 532.55772018 C-511.27393245 533.11443871 -521.76477062 533.67378801 -532.25541896 534.23683184 C-539.35582474 534.61767121 -546.45640238 534.99518752 -553.55712205 535.37012845 C-557.64626594 535.58614693 -561.73532018 535.80359218 -565.82417488 536.02502251 C-625.76069694 539.26709982 -625.76069694 539.26709982 -649.3359375 519.10546875 C-662.84016255 506.57337884 -668.96418792 490.07410526 -670.4256916 471.98670387 C-670.55183346 468.4863514 -670.60084283 464.99201048 -670.62915039 461.48950195 C-670.68286767 458.47417888 -670.75349463 455.45937215 -670.82766724 452.44448853 C-670.84797963 451.60705185 -670.86829202 450.76961518 -670.88921994 449.90680164 C-671.20972369 437.82889858 -671.87220021 425.76479743 -672.49989705 413.69974731 C-672.60801617 411.62133365 -672.71560801 409.54289323 -672.82309258 407.46444666 C-673.24160961 399.3798254 -673.66533191 391.29548364 -674.09160494 383.21126793 C-674.37849154 377.76951547 -674.66383527 372.32768399 -674.9481678 366.8857975 C-674.98908528 366.10271402 -675.03000277 365.31963055 -675.07216017 364.51281727 C-675.15534483 362.92072792 -675.23852682 361.32863844 -675.32170618 359.73654882 C-676.09581842 344.92326673 -676.87474093 330.11024067 -677.65533871 315.29729912 C-678.32217995 302.64070933 -678.98456198 289.98389237 -679.64379883 277.3269043 C-680.41418579 262.53590562 -681.18755599 247.74506753 -681.96543652 232.95446092 C-682.04859268 231.37315253 -682.13174434 229.79184391 -682.21489143 228.21053505 C-682.25577668 227.43298405 -682.29666192 226.65543305 -682.33878611 225.8543199 C-682.62408121 220.4246723 -682.90727782 214.99491769 -683.18960381 209.56511497 C-683.53407438 202.94105305 -683.88179464 196.31717083 -684.23349481 189.69348868 C-684.41217732 186.32679056 -684.58902498 182.96002511 -684.76285362 179.59307098 C-685.46538139 166.00367756 -686.30111373 152.46528028 -687.70497227 138.92873096 C-689.11703733 125.14964971 -689.56712504 111.25210627 -690.1484375 97.41796875 C-690.20338379 96.14550293 -690.25833008 94.87303711 -690.31494141 93.56201172 C-690.82497645 80.18054683 -690.31470892 68.85306392 -685.1484375 56.41796875 C-684.849375 55.5775 -684.5503125 54.73703125 -684.2421875 53.87109375 C-681.27897234 46.13380971 -675.66019078 37.09427173 -668.1484375 33.41796875 C-667.70951172 32.48791016 -667.70951172 32.48791016 -667.26171875 31.5390625 C-663.65369661 24.66483085 -650.70787804 19.88760204 -643.72779083 17.46358299 C-629.75957535 13.38313502 -614.20501085 13.74583028 -599.77539062 13.03271484 C-597.33706027 12.9078332 -594.89875669 12.7824277 -592.46047783 12.65654469 C-587.21135581 12.38669514 -581.96206569 12.12041879 -576.71259689 11.85741234 C-569.00608777 11.47126998 -561.29994282 11.0782043 -553.59386276 10.68360277 C-540.84569824 10.03097268 -528.0972789 9.38346426 -515.34869385 8.73910522 C-496.65389704 7.79415004 -477.95947617 6.84189517 -459.26513672 5.88793945 C-457.70959375 5.80856958 -456.15405073 5.72920086 -454.59850764 5.64983332 C-445.29492724 5.17513846 -445.29492724 5.17513846 -435.99135101 4.70036179 C-427.50609483 4.26733615 -419.02081328 3.83481295 -410.53550141 3.40288011 C-375.11620966 1.5999047 -339.69787771 -0.21842551 -304.28275967 -2.1020031 C-301.52527665 -2.2486557 -298.76778534 -2.39515143 -296.01029205 -2.54161072 C-281.39094905 -3.31827761 -266.77170664 -4.09680241 -252.15307617 -4.88677979 C-199.93669251 -7.70815822 -199.93669251 -7.70815822 -178.53323364 -8.22140503 C-160.1934399 -8.68389291 -141.87559295 -9.71965335 -123.55664062 -10.68383789 C-118.17664862 -10.96683312 -112.79626233 -11.24140505 -107.41572571 -11.51382351 C-103.19088042 -11.72885742 -98.96630592 -11.94888861 -94.74179077 -12.17030525 C-92.75833584 -12.27358586 -90.77479678 -12.37526655 -88.79116821 -12.47515678 C-78.50030324 -12.99573072 -68.2737387 -13.65524151 -58.04335022 -14.91262722 C-36.02580168 -17.60631975 -17.84046546 -13.13707002 0 0 Z " fill="#01B260" transform="translate(707.1484375,122.58203125)"/>
<path d="M0 0 C0.81339844 0.01691895 1.62679687 0.03383789 2.46484375 0.05126953 C10.27075927 0.21417858 16.39304907 0.63941239 23 5 C24.72194097 8.44388193 24.37796284 12.22688824 24 16 C21.91891892 20.54054054 21.91891892 20.54054054 19 22 C16.21457798 21.93487855 13.4655318 21.80769455 10.6875 21.625 C9.87224854 21.57682129 9.05699707 21.52864258 8.21704102 21.47900391 C3.6126272 21.19918015 -0.97065833 20.81786798 -5.5625 20.375 C-16.1246451 19.51607079 -28.88885409 19.57918437 -38.9375 23 C-42.6534437 24.21336937 -46.11506079 24.59810974 -50 25 C-50 25.66 -50 26.32 -50 27 C-51.76949612 27.50471197 -53.54065223 28.00360685 -55.3125 28.5 C-56.29863281 28.7784375 -57.28476562 29.056875 -58.30078125 29.34375 C-61 30 -61 30 -64 30 C-64 30.66 -64 31.32 -64 32 C-65.93558599 32.67220351 -67.87354372 33.33758077 -69.8125 34 C-70.89144531 34.37125 -71.97039062 34.7425 -73.08203125 35.125 C-76 36 -76 36 -79 36 C-79 36.66 -79 37.32 -79 38 C-80.6029053 38.81498562 -82.20737278 39.62689927 -83.8125 40.4375 C-84.70582031 40.88996094 -85.59914063 41.34242188 -86.51953125 41.80859375 C-89 43 -89 43 -92 44 C-92.28875 44.598125 -92.5775 45.19625 -92.875 45.8125 C-94 48 -94 48 -96.3125 49.625 C-100.64738505 53.45582865 -103.31402639 58.45473454 -104.41796875 64.16015625 C-104.69423192 71.19828944 -102.62326778 78.20739731 -101 85 C-100.34 85 -99.68 85 -99 85 C-98.18501438 86.6029053 -97.37310073 88.20737278 -96.5625 89.8125 C-96.11003906 90.70582031 -95.65757812 91.59914063 -95.19140625 92.51953125 C-94 95 -94 95 -93 98 C-91.66998055 98.67325365 -90.33628964 99.33927901 -89 100 C-87.578125 101.69921875 -87.578125 101.69921875 -86.25 103.6875 C-83.5993811 107.36928236 -80.75009987 110.17470068 -77.27734375 113.07421875 C-73.64266919 116.14779432 -70.19414457 119.42480675 -66.7109375 122.66796875 C-63.94069156 125.05101893 -61.05325436 126.99902055 -58 129 C-56.83266287 129.9748118 -55.68300846 130.97170296 -54.5625 132 C-51.87483601 134.35390179 -49.16798717 136.11513692 -46.0078125 137.80859375 C-43.41110016 139.34944446 -41.04588442 141.13363765 -38.625 142.9375 C-34.62215239 145.89185274 -30.6274224 148.46196839 -26.23828125 150.79296875 C-23.81617698 152.09912969 -21.47472829 153.50546087 -19.125 154.9375 C-9.34705218 160.83126303 0.7953562 165.95205764 11.01855469 171.01513672 C13.9984853 172.49629001 16.96657639 174.00087878 19.9375 175.5 C25.929161 178.50612545 31.99553405 181.3298821 38.07885742 184.14477539 C41.78836793 185.88335437 45.31488168 187.68846971 48.75 189.9375 C51.68928767 191.80281718 53.57440898 192.67885084 57 193 C57 193.66 57 194.32 57 195 C57.68449219 195.07863281 58.36898437 195.15726563 59.07421875 195.23828125 C62.79501841 196.20698076 65.6552778 198.07612637 68.8125 200.1875 C69.74606323 200.80141602 69.74606323 200.80141602 70.69848633 201.42773438 C75.26596056 204.45405094 79.71299173 207.58549439 84 211 C84.89589844 211.69996094 85.79179687 212.39992188 86.71484375 213.12109375 C91.50228861 216.93177133 95.906847 220.66480875 99.734375 225.44921875 C101.14784942 227.24063198 101.14784942 227.24063198 103.625 229.5625 C110 236.10526316 110 236.10526316 110 240 C110.66 240 111.32 240 112 240 C112.84114171 241.43294498 113.67265687 242.87154405 114.5 244.3125 C114.9640625 245.11300781 115.428125 245.91351563 115.90625 246.73828125 C117 249 117 249 117 252 C117.66 252 118.32 252 119 252 C122.44419134 262.37357631 122.44419134 262.37357631 122 268 C122.66 268 123.32 268 124 268 C124 271.96 124 275.92 124 280 C125.32 279.01 126.64 278.02 128 277 C130.21875 276.63671875 130.21875 276.63671875 132.5 276.6875 C133.2528125 276.69136719 134.005625 276.69523437 134.78125 276.69921875 C137.24974857 277.03385676 138.88852435 277.68958858 141 279 C143.10923996 283.21847991 142.64938476 288.42980163 142 293 C139.3125 295.9375 139.3125 295.9375 136 298 C135.175 298.825 134.35 299.65 133.5 300.5 C130.80512611 303.19487389 127.92674871 305.56104274 125 308 C123.31288577 309.6459651 121.6454378 311.31237149 120 313 C119.13375 313.825 118.2675 314.65 117.375 315.5 C115.09587851 317.89907525 113.64055111 320.14686763 112 323 C111.38125 323.7425 110.7625 324.485 110.125 325.25 C107.27098385 328.94343266 105.18731118 332.88367821 103 337 C102.65743164 337.64146973 102.31486328 338.28293945 101.96191406 338.94384766 C96.76847834 348.63473978 96.76847834 348.63473978 91.84765625 358.46484375 C90 362 90 362 88 363 C86.12620395 363.07033769 84.24998898 363.0843022 82.375 363.0625 C81.37210938 363.05347656 80.36921875 363.04445313 79.3359375 363.03515625 C78.17964844 363.01775391 78.17964844 363.01775391 77 363 C76.34 361.68 75.68 360.36 75 359 C74.34 359 73.68 359 73 359 C71.36733476 349.56682304 75.72568082 342.72832766 80.08496094 334.75146484 C81.22880744 332.56204253 82.14838486 330.31728962 83 328 C83.66 328 84.32 328 85 328 C85.185625 326.8553125 85.185625 326.8553125 85.375 325.6875 C86 323 86 323 88 320 C86.35 320.33 84.7 320.66 83 321 C83 321.66 83 322.32 83 323 C81.44033782 323.508783 79.87710759 324.00663469 78.3125 324.5 C77.00732422 324.91765625 77.00732422 324.91765625 75.67578125 325.34375 C73.00608323 325.99850805 70.73603316 326.11831495 68 326 C68 326.66 68 327.32 68 328 C63.59085217 329.10228696 59.51617599 329.07654536 55 329 C55 329.66 55 330.32 55 331 C28.40102639 333.92947102 2.51684936 333.603869 -24 330 C-25.1854541 329.83951172 -26.3709082 329.67902344 -27.59228516 329.51367188 C-31.0651692 329.03099825 -34.5329873 328.52307451 -38 328 C-39.05082764 327.8462793 -40.10165527 327.69255859 -41.18432617 327.53417969 C-42.15474854 327.37852539 -43.1251709 327.22287109 -44.125 327.0625 C-44.97320312 326.92972656 -45.82140625 326.79695313 -46.6953125 326.66015625 C-49.35475239 325.89838449 -50.96956904 324.86668652 -53 323 C-53 322.34 -53 321.68 -53 321 C-53.66 321 -54.32 321 -55 321 C-55.4390692 312.36497244 -55.4390692 312.36497244 -52 308 C-43.76472503 303.88236252 -30.0990837 307.88715873 -21.39453125 309.203125 C-8.51926244 311.13980774 4.34355391 312.20000427 17.35327148 312.65869141 C22.94887861 312.86178929 28.44143533 313.31786377 34 314 C34 313.34 34 312.68 34 312 C40.27 311.67 46.54 311.34 53 311 C53 310.34 53 309.68 53 309 C56.63 308.67 60.26 308.34 64 308 C64 307.34 64 306.68 64 306 C66.45714547 305.16301614 68.91558857 304.33027576 71.375 303.5 C72.07367188 303.26152344 72.77234375 303.02304687 73.4921875 302.77734375 C78.7734375 301 78.7734375 301 81 301 C81 300.34 81 299.68 81 299 C82.10408203 298.43732422 82.10408203 298.43732422 83.23046875 297.86328125 C88.53004562 295.08397872 93.08124704 292.63125349 97 288 C97.721875 287.195625 98.44375 286.39125 99.1875 285.5625 C103.3714442 279.64726855 103.2482569 273.97877741 103 267 C102.34 267 101.68 267 101 267 C100.8040625 266.41734375 100.608125 265.8346875 100.40625 265.234375 C96.8460013 255.47438288 91.43430246 247.23962351 84 240 C83.2575 239.05125 82.515 238.1025 81.75 237.125 C77.21731263 231.57389237 71.11418426 227.61207193 65 224 C63.28930029 222.89950315 61.58106464 221.79516883 59.875 220.6875 C54.38016795 217.18546037 48.75024747 214.05832408 43 211 C41.82096075 210.3540566 40.6426097 209.70685589 39.46484375 209.05859375 C32.28785626 205.13338562 25.08559484 201.69850572 17.5234375 198.5546875 C13.13794118 196.61962371 8.96014845 194.39594923 4.75268555 192.10595703 C0.15005564 189.60213588 -4.49597285 187.20790548 -9.1875 184.875 C-9.85716797 184.54072998 -10.52683594 184.20645996 -11.21679688 183.86206055 C-14.24257248 182.35548263 -17.27479102 180.86857821 -20.32421875 179.41015625 C-26.19999733 176.57383291 -31.4771917 173.4424123 -36.75 169.59765625 C-38.72581193 168.19469257 -40.69162721 166.97806586 -42.8125 165.8125 C-45.83264984 164.0951599 -48.29499581 162.16400336 -51 160 C-52.19794023 159.29454631 -53.40697031 158.60767115 -54.625 157.9375 C-57.3749598 156.35881937 -58.88680458 155.20924976 -61 153 C-61.71414063 152.57203125 -62.42828125 152.1440625 -63.1640625 151.703125 C-76.22578801 143.85889315 -87.17553935 133.61962878 -98 123 C-98.93457031 122.09121094 -99.86914062 121.18242187 -100.83203125 120.24609375 C-102.64155012 118.37136699 -104.12473133 116.59665783 -105.5625 114.4375 C-106.91535744 112.41055443 -108.19321594 110.81448191 -109.9609375 109.1171875 C-115.518844 103.3463344 -121 93.07508037 -121 85 C-121.66 85 -122.32 85 -123 85 C-125.92153133 68.82723726 -125.84716099 56.61195496 -118 42 C-117.34 42 -116.68 42 -116 42 C-115.9071875 41.195625 -115.9071875 41.195625 -115.8125 40.375 C-113.27765533 32.96545404 -106.21440609 29.08676197 -100 25 C-99.01 24.34 -98.02 23.68 -97 23 C-96.01 23 -95.02 23 -94 23 C-94 22.34 -94 21.68 -94 21 C-92.23244474 20.15973604 -90.46082737 19.32801278 -88.6875 18.5 C-87.70136719 18.0359375 -86.71523438 17.571875 -85.69921875 17.09375 C-83 16 -83 16 -80 16 C-80 15.34 -80 14.68 -80 14 C-78.94941406 13.67386719 -77.89882813 13.34773437 -76.81640625 13.01171875 C-75.39840727 12.57040963 -73.98044063 12.12899658 -72.5625 11.6875 C-71.8312793 11.4603833 -71.10005859 11.2332666 -70.34667969 10.99926758 C-66.4586726 9.78674386 -62.59498633 8.53162968 -58.75 7.1875 C-55 6 -55 6 -51 6 C-51 5.34 -51 4.68 -51 4 C-33.83907885 0.65239619 -17.4635248 -0.58272135 0 0 Z " fill="#000201" transform="translate(410,181)"/>
<path d="M0 0 C2.56834049 2.68508324 4 4.22212653 4 8 C4.66 8 5.32 8 6 8 C6.50833591 9.24663331 7.00631145 10.49749387 7.5 11.75 C7.91765625 12.79414063 7.91765625 12.79414063 8.34375 13.859375 C9 16 9 16 9 20 C9.66 20 10.32 20 11 20 C12.20041098 31.18829651 13.21796239 42.39080647 13.875 53.625 C13.98509399 55.0790625 13.98509399 55.0790625 14.09741211 56.5625 C14.51788024 64.84423319 12.71909296 71.85252276 8.1484375 78.82421875 C7.27058594 79.74654297 7.27058594 79.74654297 6.375 80.6875 C5.78460937 81.33074219 5.19421875 81.97398437 4.5859375 82.63671875 C3 84 3 84 1 84 C0.62875 84.88945313 0.62875 84.88945313 0.25 85.796875 C-1.18968863 88.3343262 -2.65151493 89.54044102 -5 91.25 C-5.70125 91.77078125 -6.4025 92.2915625 -7.125 92.828125 C-9 94 -9 94 -11 94 C-11.33 94.99 -11.66 95.98 -12 97 C-14.21484375 98.38671875 -14.21484375 98.38671875 -16.9375 99.6875 C-17.83339844 100.12449219 -18.72929688 100.56148437 -19.65234375 101.01171875 C-22 102 -22 102 -24 102 C-24 102.66 -24 103.32 -24 104 C-25.93467942 104.83986084 -27.87285129 105.67168027 -29.8125 106.5 C-30.89144531 106.9640625 -31.97039062 107.428125 -33.08203125 107.90625 C-36 109 -36 109 -39 109 C-39 109.66 -39 110.32 -39 111 C-42.87684087 112.19287411 -45.91621923 113 -50 113 C-50 113.66 -50 114.32 -50 115 C-62.58298667 118.04983976 -62.58298667 118.04983976 -67.75 118.625 C-70.84859132 118.64145975 -70.84859132 118.64145975 -72 120 C-79.30154313 120.90156249 -86.63201682 121.04775134 -93.97875977 120.97265625 C-101.73543819 120.93660194 -109.43436563 121.25682534 -117.17562103 121.74069786 C-121.05859025 121.98165785 -124.94283652 122.20067915 -128.8269043 122.4230957 C-129.64478487 122.47026135 -130.46266544 122.51742701 -131.30533028 122.56602192 C-161.27259279 124.28813177 -191.16800112 125.41228293 -221.1875 125.3125 C-222.3468745 125.30864792 -222.3468745 125.30864792 -223.52967072 125.30471802 C-245.23255105 125.22268834 -266.93742253 124.93655212 -288.63105774 124.28620911 C-307.51862242 123.73096215 -326.19727259 124.16074217 -345.06188965 125.28338623 C-411.86465205 129.20691259 -411.86465205 129.20691259 -436.1796875 122.94921875 C-439.50400926 122.12323696 -442.66884431 121.59438098 -446.0625 121.1875 C-454.97963582 119.879515 -463.36545932 117.00547401 -471.62890625 113.4296875 C-474.45043366 112.23307217 -477.10818635 111.33590569 -480.0625 110.5625 C-487.3222596 108.40983301 -491.33121206 105.03702071 -495.60546875 98.90234375 C-496.92754805 96.98990605 -496.92754805 96.98990605 -498.515625 95.51953125 C-508.8179341 84.97322009 -507.39568217 65.4600332 -508.06030273 51.71240234 C-508.18703993 49.13435865 -508.33029305 46.55758096 -508.47460938 43.98046875 C-508.9031716 35.8316628 -509.13387499 27.71122939 -508.80078125 19.5546875 C-508.78363571 18.86335724 -508.76649017 18.17202698 -508.74882507 17.45974731 C-508.4857953 12.80990791 -507.32803715 10.25246224 -504 7 C-503.34 7 -502.68 7 -502 7 C-502 6.34 -502 5.68 -502 5 C-494.66666667 4.63333333 -494.66666667 4.63333333 -491.5 6.375 C-490 8 -490 8 -490 10 C-489.34 10 -488.68 10 -488 10 C-488.01047363 11.13727539 -488.02094727 12.27455078 -488.03173828 13.44628906 C-488.06864603 17.77031147 -488.09115056 22.09432087 -488.10986328 26.41845703 C-488.11976314 28.27036906 -488.13328645 30.12226617 -488.15087891 31.97412109 C-488.24371449 42.01674711 -488.0896313 51.95142388 -487.109375 61.953125 C-486.99083664 63.17603241 -486.99083664 63.17603241 -486.86990356 64.42364502 C-485.94607315 72.91292749 -484.28992294 79.98140706 -478 86 C-477.34 86.99 -476.68 87.98 -476 89 C-473.68822655 90.09597351 -471.45057959 91.04497357 -469.0625 91.9375 C-468.38010254 92.19837402 -467.69770508 92.45924805 -466.99462891 92.72802734 C-465.62074202 93.25167433 -464.24542806 93.7715938 -462.86865234 94.28759766 C-461.33376212 94.87275701 -459.81466448 95.49917892 -458.30078125 96.13671875 C-445.87741245 101.19809122 -431.80843272 102.70497003 -418.59375 104.60546875 C-416.92529148 104.85925536 -415.26287423 105.15924812 -413.61328125 105.515625 C-410.30539361 106.12874618 -407.04512783 106.34990648 -403.6875 106.5625 C-401.80611328 106.68818359 -401.80611328 106.68818359 -399.88671875 106.81640625 C-385.29583415 107.46552329 -370.85061473 106.59463574 -356.28842163 105.71716309 C-335.91633017 104.5095308 -315.5970346 103.70358468 -295.1875 103.75 C-294.21073303 103.75104736 -293.23396606 103.75209473 -292.2276001 103.75317383 C-280.9057865 103.7790923 -269.60616847 104.06169319 -258.29296875 104.49609375 C-244.2359144 105.03140549 -230.19203663 105.280158 -216.125 105.3125 C-214.84769012 105.31644775 -213.57038025 105.32039551 -212.25436401 105.32446289 C-184.7576976 105.36311278 -157.35429336 103.99569011 -129.90869141 102.4230957 C-128.68878116 102.35365769 -128.68878116 102.35365769 -127.44422626 102.28281689 C-123.63178655 102.06540014 -119.8197663 101.84343293 -116.00828552 101.60978699 C-92.12712942 100.18332581 -92.12712942 100.18332581 -81 102 C-81 101.34 -81 100.68 -81 100 C-76.05 99.67 -71.1 99.34 -66 99 C-66 98.34 -66 97.68 -66 97 C-64.23050388 96.49528803 -62.45934777 95.99639315 -60.6875 95.5 C-59.70136719 95.2215625 -58.71523438 94.943125 -57.69921875 94.65625 C-55 94 -55 94 -52 94 C-52 93.34 -52 92.68 -52 92 C-51.26136719 91.78085937 -50.52273438 91.56171875 -49.76171875 91.3359375 C-43.09585278 89.25232501 -37.20798609 86.70148751 -31.1796875 83.171875 C-29 82 -29 82 -27 82 C-27 81.34 -27 80.68 -27 80 C-25.31550252 78.82881699 -23.57504001 77.73757338 -21.8125 76.6875 C-17.60915027 74.08671108 -14.22453384 71.72836725 -11 68 C-10.4225 67.360625 -9.845 66.72125 -9.25 66.0625 C-5.8503833 60.45313244 -6.67706126 52.50282755 -6.4375 46.125 C-6.39431641 45.05507813 -6.35113281 43.98515625 -6.30664062 42.8828125 C-6.20107183 40.25532246 -6.09896209 37.62774578 -6 35 C-6.66 35 -7.32 35 -8 35 C-8.99 30.05 -9.98 25.1 -11 20 C-11.66 20 -12.32 20 -13 20 C-16.0591905 15.02881544 -16.79973229 10.71237352 -16 5 C-13.24386029 -1.81211825 -6.51521364 -0.9675181 0 0 Z " fill="#000201" transform="translate(613,480)"/>
<path d="M0 0 C4.56944444 2.13888889 4.56944444 2.13888889 6 5 C6.07092842 7.2072923 6.08415025 9.41667452 6.0625 11.625 C6.05347656 12.81351563 6.04445312 14.00203125 6.03515625 15.2265625 C6.02355469 16.14179688 6.01195312 17.05703125 6 18 C6.66 18 7.32 18 8 18 C8 23.28 8 28.56 8 34 C8.66 34 9.32 34 10 34 C10 38.29 10 42.58 10 47 C10.66 47 11.32 47 12 47 C12.05534912 47.6612085 12.11069824 48.32241699 12.16772461 49.00366211 C12.41965715 51.9820238 12.67848502 54.95974625 12.9375 57.9375 C13.02451172 58.97841797 13.11152344 60.01933594 13.20117188 61.09179688 C13.28818359 62.08115234 13.37519531 63.07050781 13.46484375 64.08984375 C13.543396 65.00628662 13.62194824 65.92272949 13.70288086 66.86694336 C13.77870751 68.97963826 13.77870751 68.97963826 15 70 C15.07226502 71.85287502 15.0838122 73.70833878 15.0625 75.5625 C15.05347656 76.57441406 15.04445312 77.58632812 15.03515625 78.62890625 C15.02355469 79.41136719 15.01195312 80.19382812 15 81 C15.66 81 16.32 81 17 81 C17.79681084 89.02502344 18.12867289 96.93649887 18 105 C18.66 105 19.32 105 20 105 C20 110.61 20 116.22 20 122 C20.66 122 21.32 122 22 122 C22 128.6 22 135.2 22 142 C22.66 142 23.32 142 24 142 C24.04898438 143.24394531 24.09796875 144.48789062 24.1484375 145.76953125 C24.22356631 147.4505384 24.29910957 149.13152706 24.375 150.8125 C24.4059375 151.62654297 24.436875 152.44058594 24.46875 153.27929688 C24.6788958 157.74489516 25.13494388 162.00979289 26 166.3984375 C27.12324754 172.20426791 27.44223673 177.91063036 27.625 183.8125 C27.68192017 185.37484375 27.68192017 185.37484375 27.73999023 186.96875 C28.00291296 194.64776306 28.12174406 202.31659697 28 210 C28.66 210 29.32 210 30 210 C30.05534912 211.20648193 30.11069824 212.41296387 30.16772461 213.65600586 C30.37357242 218.11587274 30.58561167 222.57542712 30.79956055 227.03491211 C30.89143129 228.96810023 30.98160393 230.90136981 31.07006836 232.8347168 C31.19723368 235.60748908 31.33042648 238.37991477 31.46484375 241.15234375 C31.52272316 242.45702858 31.52272316 242.45702858 31.58177185 243.78807068 C31.40767539 247.71419159 31.40767539 247.71419159 33 251 C33.07319621 253.69654854 33.09242537 256.36691458 33.0625 259.0625 C33.05798828 259.82111328 33.05347656 260.57972656 33.04882812 261.36132812 C33.0370068 263.24091871 33.01907078 265.12046899 33 267 C33.66 267 34.32 267 35 267 C35.33 273.27 35.66 279.54 36 286 C36.66 286 37.32 286 38 286 C38.19916016 287.49853516 38.19916016 287.49853516 38.40234375 289.02734375 C38.57894531 290.31769531 38.75554687 291.60804688 38.9375 292.9375 C39.11152344 294.22527344 39.28554688 295.51304687 39.46484375 296.83984375 C39.66162423 299.85466313 39.66162423 299.85466313 41 301 C41.93119789 306.0698552 42.08997924 310.87118304 42 316 C42.66 316 43.32 316 44 316 C44.495 324.91 44.495 324.91 45 334 C49.94904576 334.53533603 49.94904576 334.53533603 54.90063477 335.04614258 C60.46269139 335.69470659 65.60657455 336.91540364 69.9375 340.6875 C71.50665567 344.10272115 71.55078621 347.34741774 71 351 C68.86111111 355.56944444 68.86111111 355.56944444 66 357 C58.81501647 357.77027064 52.29851617 356.77022588 45.375 355 C34.00612141 352.12352173 24.58240827 353.1307929 13 355 C13 355.66 13 356.32 13 357 C-3.33157895 361.50526316 -3.33157895 361.50526316 -8.4375 358.625 C-10 357 -10 357 -10 355 C-10.66 355 -11.32 355 -12 355 C-12.47231912 350.18234501 -12.74976357 347.05848974 -9.875 343 C-6.78007546 340.84700902 -4.72790821 340.26008662 -1 340 C-1 339.34 -1 338.68 -1 338 C7.42857143 335.71428571 7.42857143 335.71428571 12 336 C12 335.34 12 334.68 12 334 C16.29 334 20.58 334 25 334 C24.67 328.39 24.34 322.78 24 317 C23.34 317 22.68 317 22 317 C21.67 312.38 21.34 307.76 21 303 C20.34 303 19.68 303 19 303 C18.67 297.72 18.34 292.44 18 287 C17.34 287 16.68 287 16 287 C15.9498877 286.3608667 15.89977539 285.7217334 15.84814453 285.06323242 C15.61282806 282.10416782 15.36895131 279.14586477 15.125 276.1875 C15.04636719 275.18267578 14.96773437 274.17785156 14.88671875 273.14257812 C14.48111974 268.29098992 13.9643372 263.56533998 12.9921875 258.79296875 C11.69421786 252.04848626 11.43191491 245.25616738 11.1083374 238.41213989 C10.92372899 234.51482224 10.71746017 230.6186978 10.5078125 226.72265625 C10.46689484 225.95970749 10.42597717 225.19675873 10.38381958 224.41069031 C10.05151685 218.4409613 9.52387817 212.50629372 8.875 206.5625 C7.81044211 196.69991837 7.80840942 186.90949059 8 177 C7.34 177 6.68 177 6 177 C5.96036133 176.40614502 5.92072266 175.81229004 5.87988281 175.20043945 C5.10990321 163.93044794 4.22073545 152.68468648 2.9765625 141.45703125 C2.88652954 140.64363785 2.79649658 139.83024445 2.70373535 138.99220276 C2.25425964 134.95866699 1.7937158 130.92666115 1.32128906 126.89575195 C0.36342486 118.55844749 -0.2764449 110.41006809 0 102 C-0.66 102 -1.32 102 -2 102 C-2 97.71 -2 93.42 -2 89 C-2.66 89 -3.32 89 -4 89 C-4.91160286 81.64206267 -5.11459026 74.41017023 -5 67 C-5.66 67 -6.32 67 -7 67 C-8.71857859 53.85001873 -10.2980732 40.68904778 -11.6875 27.5 C-11.81874268 26.27901611 -11.94998535 25.05803223 -12.08520508 23.80004883 C-13.92807554 5.98563434 -13.92807554 5.98563434 -10 1 C-6.81092735 -0.59453633 -3.47055318 -0.38561702 0 0 Z " fill="#000301" transform="translate(220,172)"/>
</svg>
